<?xml version="1.0" encoding="utf-8"?>
<!-- Generator: Adobe Illustrator 23.0.1, SVG Export Plug-In . SVG Version: 6.00 Build 0)  -->
<svg version="1.1" id="Layer_2" xmlns="http://www.w3.org/2000/svg" xmlns:xlink="http://www.w3.org/1999/xlink" x="0px" y="0px"
	 viewBox="0 0 1008 421.2" style="enable-background:new 0 0 1008 421.2;" xml:space="preserve">
<style type="text/css">
	.st0{fill:#3D9EFC;}
	.st1{fill:#E10E0E;}
	.st2{fill:#88BCD9;}
</style>
<g>
	<path class="st0" d="M201.86,161.28h49.34c0,0,15.5,0.3,15.8,20.87l-7.16,62.31l-56.95,14.61l13.71-72.45
		c0,0,4.25-13.42-15.5-13.42L201.86,161.28z"/>
	<polygon class="st0" points="248.82,314.6 240.77,363.57 255.08,372.96 255.08,384.14 166.76,384.14 166.76,375.42 187.55,364.02 
		194.26,318.4 	"/>
	<path class="st1" d="M279.17,82.84c-11.24,13.1-29.38,15.97-40.53,6.4c-11.14-9.56-11.07-27.93,0.17-41.03
		c11.24-13.1,29.39-15.97,40.53-6.4C290.49,51.37,290.41,69.74,279.17,82.84z"/>
	<path class="st2" d="M246.14,135.35c0,0,25.19-7.68,60.37-7.68c35.18,0,107.48,17.82,107.48,51.5c0,11.7-10.21,29.86-33.02,46.88
		c-42.86,32-124.48,63.28-226.07,63.28c-88.55,0-92.13-40.25-92.13-40.25s18.34,28.62,87.65,28.62
		c69.32,0,210.64-38.01,210.64-97.04C361.07,152.94,322.76,128.19,246.14,135.35z"/>
	<path class="st2" d="M380.3,124.76c0,0,68.2,12.07,68.2,51.43c0,12.54-6.47,31.07-25.27,49.64
		c-40.2,39.7-128.15,82.74-269.22,82.74c-123.5,0-119.85-46.51-117.17-68.87c0,0-0.89,60.37,115.08,60.37S436.95,244.17,436.95,175
		C436.95,161.88,423.53,142.8,380.3,124.76z"/>
	<g>
		<path class="st2" d="M482.35,221.39l-12.91,45.7c-0.87,3.09-1.3,4.94-1.3,5.54c0,0.7,0.21,1.26,0.62,1.69
			c0.41,0.44,0.9,0.65,1.47,0.65c0.65,0,1.43-0.35,2.35-1.04c2.48-1.96,4.98-4.74,7.5-8.35l2.28,1.5
			c-2.96,4.52-6.43,8.32-10.43,11.41c-2.96,2.3-5.78,3.46-8.48,3.46c-1.78,0-3.24-0.53-4.37-1.6c-1.13-1.06-1.69-2.4-1.69-4.01
			c0-1.61,0.54-4.28,1.63-8.02l8.48-29.21c1.39-4.78,2.09-7.78,2.09-9c0-0.96-0.34-1.74-1.01-2.35c-0.67-0.61-1.6-0.91-2.77-0.91
			c-0.96,0-2.93,0.24-5.93,0.72v-2.54L482.35,221.39z M481.51,195.51c1.83,0,3.37,0.63,4.63,1.89c1.26,1.26,1.89,2.8,1.89,4.63
			c0,1.78-0.64,3.31-1.92,4.6c-1.28,1.28-2.81,1.92-4.6,1.92c-1.78,0-3.31-0.64-4.6-1.92c-1.28-1.28-1.92-2.81-1.92-4.6
			c0-1.83,0.63-3.37,1.89-4.63C478.14,196.14,479.68,195.51,481.51,195.51z"/>
		<path class="st2" d="M566.32,187.68l-22.43,76.93c-1.22,4.17-1.83,6.91-1.83,8.22c0,0.43,0.19,0.85,0.56,1.24
			c0.37,0.39,0.75,0.59,1.14,0.59c0.56,0,1.24-0.28,2.02-0.85c1.48-1.04,3.95-3.65,7.43-7.82l2.22,1.37
			c-3.13,4.35-6.29,7.87-9.49,10.56c-3.19,2.69-6.18,4.04-8.96,4.04c-1.48,0-2.7-0.52-3.65-1.57c-0.96-1.04-1.43-2.52-1.43-4.43
			c0-2.48,0.65-5.8,1.96-9.97l2.54-8.08c-6.3,9.74-12.04,16.47-17.21,20.21c-3.57,2.56-6.98,3.85-10.24,3.85
			c-3.3,0-6.18-1.47-8.64-4.4c-2.46-2.93-3.68-6.92-3.68-11.96c0-6.48,2.06-13.39,6.19-20.73c4.13-7.34,9.58-13.32,16.37-17.93
			c5.35-3.69,10.26-5.54,14.73-5.54c2.35,0,4.37,0.48,6.06,1.43c1.69,0.96,3.37,2.54,5.02,4.76l6.39-22.69
			c0.48-1.61,0.87-2.89,1.17-3.85c0.52-1.74,0.78-3.17,0.78-4.3c0-0.91-0.33-1.67-0.98-2.28c-0.91-0.74-2.09-1.11-3.52-1.11
			c-1,0-2.65,0.15-4.96,0.46v-2.41L566.32,187.68z M542.13,233.97c0-2.78-0.81-5.02-2.41-6.72c-1.61-1.69-3.65-2.54-6.13-2.54
			c-5.48,0-11.18,4.52-17.11,13.56c-5.93,9.04-8.9,17.69-8.9,25.95c0,3.26,0.72,5.75,2.15,7.47c1.43,1.72,3.15,2.58,5.15,2.58
			c4.52,0,10.19-4.89,17.02-14.67C538.72,249.82,542.13,241.28,542.13,233.97z"/>
		<path class="st2" d="M582.09,255.81c-0.3,2.17-0.46,3.98-0.46,5.41c0,3.87,1.37,7.16,4.11,9.88c2.74,2.72,6.06,4.07,9.97,4.07
			c3.13,0,6.14-0.64,9.03-1.92c2.89-1.28,7.18-4.12,12.88-8.51l1.37,1.89c-10.3,10.21-20.12,15.32-29.47,15.32
			c-6.35,0-11.13-2-14.34-6c-3.22-4-4.82-8.41-4.82-13.23c0-6.48,2-13.11,6-19.88c4-6.78,9.02-12.05,15.06-15.81
			c6.04-3.76,12.26-5.64,18.65-5.64c4.61,0,8.02,0.94,10.24,2.8c2.22,1.87,3.33,4.09,3.33,6.65c0,3.61-1.43,7.06-4.3,10.37
			c-3.78,4.3-9.35,7.78-16.69,10.43C597.76,253.43,590.92,254.82,582.09,255.81z M582.55,252.62c6.43-0.74,11.67-2,15.71-3.78
			c5.35-2.39,9.36-5.25,12.03-8.57c2.67-3.32,4.01-6.49,4.01-9.49c0-1.83-0.58-3.3-1.73-4.43c-1.15-1.13-2.79-1.7-4.92-1.7
			c-4.43,0-9.14,2.36-14.12,7.08C588.56,236.44,584.9,243.41,582.55,252.62z"/>
		<path class="st2" d="M693.45,221.39l-12.71,44.2l-1.43,5.93c-0.13,0.57-0.2,1.04-0.2,1.43c0,0.7,0.22,1.3,0.65,1.83
			c0.35,0.39,0.78,0.59,1.31,0.59c0.56,0,1.3-0.35,2.21-1.04c1.7-1.26,3.96-3.87,6.78-7.82l2.22,1.56c-3,4.52-6.09,7.97-9.26,10.33
			c-3.17,2.37-6.11,3.55-8.8,3.55c-1.87,0-3.27-0.47-4.21-1.4c-0.94-0.93-1.4-2.29-1.4-4.07c0-2.13,0.48-4.93,1.43-8.41l1.37-4.89
			c-5.69,7.43-10.93,12.63-15.71,15.58c-3.43,2.13-6.8,3.2-10.11,3.2c-3.17,0-5.91-1.32-8.22-3.94c-2.3-2.63-3.46-6.25-3.46-10.86
			c0-6.91,2.08-14.2,6.23-21.87c4.15-7.67,9.42-13.81,15.81-18.42c5-3.65,9.71-5.48,14.15-5.48c2.65,0,4.86,0.7,6.62,2.09
			c1.76,1.39,3.1,3.7,4.01,6.91l2.35-7.43L693.45,221.39z M670.23,224.78c-2.78,0-5.74,1.3-8.87,3.91
			c-4.43,3.69-8.38,9.17-11.83,16.43c-3.46,7.26-5.18,13.82-5.18,19.69c0,2.96,0.74,5.29,2.22,7.01c1.48,1.72,3.17,2.58,5.09,2.58
			c4.74,0,9.89-3.5,15.45-10.5c7.43-9.3,11.15-18.84,11.15-28.62c0-3.7-0.72-6.37-2.15-8.02
			C674.67,225.61,672.71,224.78,670.23,224.78z"/>
		<path class="st2" d="M742.6,187.68l-22.3,77.59c-1.09,3.87-1.63,6.24-1.63,7.11c0,0.65,0.2,1.19,0.62,1.63
			c0.41,0.43,0.92,0.65,1.53,0.65c0.83,0,1.72-0.37,2.67-1.11c2.26-1.78,4.63-4.54,7.11-8.28l1.96,2.02
			c-4.13,5.83-7.93,9.89-11.41,12.19c-2.56,1.65-5,2.48-7.3,2.48c-1.65,0-3.03-0.57-4.14-1.7c-1.11-1.13-1.66-2.43-1.66-3.91
			c0-1.57,0.7-4.78,2.09-9.65l17.67-61.15c1.43-5,2.15-7.87,2.15-8.61c0-1.04-0.41-1.9-1.24-2.57c-0.83-0.67-2.11-1.01-3.85-1.01
			c-1,0-2.52,0.15-4.56,0.46v-2.41L742.6,187.68z"/>
	</g>
	<g>
		<path class="st0" d="M487.7,342.93v24.51c0,4.78,0.29,7.79,0.88,9.03c0.59,1.24,1.63,2.23,3.13,2.97c1.5,0.74,4.25,1.11,8.25,1.11
			v2.41h-44.92v-2.41c4.08,0,6.86-0.38,8.31-1.14c1.46-0.76,2.48-1.75,3.06-2.97c0.59-1.22,0.88-4.22,0.88-9v-57.37
			c0-4.78-0.29-7.79-0.88-9.03c-0.59-1.24-1.62-2.23-3.1-2.97c-1.48-0.74-4.24-1.11-8.28-1.11v-2.41h38.53
			c12.69,0,21.8,2.26,27.32,6.78c5.52,4.52,8.28,10.17,8.28,16.95c0,5.74-1.78,10.65-5.35,14.74c-3.56,4.09-8.47,6.87-14.73,8.34
			C504.87,342.4,497.74,342.93,487.7,342.93z M487.7,299.63v38.21c1.43,0.09,2.52,0.13,3.26,0.13c5.3,0,9.39-1.57,12.26-4.73
			c2.87-3.15,4.3-8.03,4.3-14.64c0-6.56-1.43-11.37-4.3-14.41c-2.87-3.04-7.15-4.56-12.84-4.56H487.7z"/>
		<path class="st0" d="M548.35,294.55h45.64v2.41h-2.28c-3.43,0-5.79,0.36-7.07,1.08c-1.28,0.72-2.2,1.71-2.74,2.97
			c-0.54,1.26-0.81,4.41-0.81,9.46v43.29c0,7.91,0.6,13.15,1.79,15.71c1.19,2.56,3.16,4.69,5.9,6.39c2.74,1.7,6.19,2.54,10.37,2.54
			c4.78,0,8.86-1.08,12.22-3.23c3.37-2.15,5.89-5.12,7.56-8.9c1.67-3.78,2.51-10.37,2.51-19.75v-36.05c0-3.96-0.41-6.78-1.24-8.48
			c-0.83-1.69-1.87-2.87-3.13-3.52c-1.96-1-4.72-1.5-8.28-1.5v-2.41h30.58v2.41h-1.83c-2.48,0-4.54,0.5-6.19,1.5
			c-1.65,1-2.85,2.5-3.59,4.5c-0.56,1.39-0.85,3.89-0.85,7.5v33.58c0,10.39-0.68,17.89-2.05,22.49c-1.37,4.61-4.71,8.85-10.01,12.71
			c-5.3,3.87-12.54,5.8-21.71,5.8c-7.65,0-13.56-1.02-17.73-3.06c-5.69-2.78-9.71-6.34-12.06-10.69
			c-2.35-4.35-3.52-10.19-3.52-17.54v-43.29c0-5.09-0.28-8.25-0.85-9.49c-0.57-1.24-1.54-2.23-2.93-2.97
			c-1.39-0.74-3.96-1.08-7.69-1.04V294.55z"/>
		<path class="st0" d="M686.92,294.55l43.62,54.83v-38.01c0-5.3-0.76-8.89-2.28-10.76c-2.09-2.52-5.58-3.74-10.5-3.65v-2.41h29.21
			v2.41c-3.74,0.48-6.25,1.1-7.53,1.86c-1.28,0.76-2.28,2-3,3.72c-0.72,1.72-1.08,4.66-1.08,8.83v73.61h-2.22l-59.78-73.61v56.2
			c0,5.09,1.16,8.52,3.49,10.3c2.32,1.78,4.99,2.67,7.98,2.67h2.09v2.41h-31.36v-2.41c4.87-0.04,8.26-1.04,10.17-3
			c1.91-1.96,2.87-5.28,2.87-9.98v-62.39l-1.89-2.35c-1.87-2.35-3.52-3.89-4.95-4.63c-1.43-0.74-3.5-1.15-6.19-1.24v-2.41H686.92z"
			/>
		<path class="st0" d="M851.24,292.53v30.64h-2.54c-1.91-8-5.48-14.13-10.69-18.38c-5.22-4.26-11.13-6.39-17.73-6.39
			c-5.52,0-10.58,1.59-15.19,4.76c-4.61,3.17-7.98,7.33-10.11,12.45c-2.74,6.56-4.11,13.87-4.11,21.91c0,7.91,1,15.12,3,21.61
			c2,6.5,5.13,11.41,9.39,14.74c4.26,3.32,9.78,4.99,16.56,4.99c5.56,0,10.66-1.22,15.29-3.65c4.63-2.43,9.51-6.63,14.64-12.58v7.63
			c-4.96,5.17-10.12,8.92-15.48,11.25c-5.37,2.33-11.64,3.49-18.81,3.49c-9.43,0-17.81-1.89-25.13-5.67
			c-7.32-3.78-12.97-9.21-16.95-16.3c-3.98-7.08-5.97-14.63-5.97-22.62c0-8.43,2.21-16.43,6.62-23.99
			c4.41-7.56,10.37-13.43,17.86-17.6c7.5-4.17,15.46-6.26,23.89-6.26c6.22,0,12.78,1.35,19.69,4.04c4,1.57,6.54,2.35,7.63,2.35
			c1.39,0,2.6-0.51,3.62-1.53c1.02-1.02,1.68-2.64,1.99-4.86H851.24z"/>
		<path class="st0" d="M907.06,340.45v27.38c0,4.52,0.25,7.35,0.75,8.47c0.5,1.13,1.48,2.12,2.93,2.97c1.46,0.85,3.42,1.27,5.9,1.27
			h2.93v2.41h-46.22v-2.41h2.93c2.56,0,4.63-0.46,6.2-1.37c1.13-0.61,2-1.65,2.61-3.13c0.48-1.04,0.72-3.78,0.72-8.21v-58.16
			c0-4.52-0.24-7.35-0.72-8.48c-0.48-1.13-1.45-2.12-2.9-2.97c-1.46-0.85-3.42-1.27-5.9-1.27h-2.93v-2.41h46.22v2.41h-2.93
			c-2.56,0-4.63,0.46-6.19,1.37c-1.13,0.61-2.02,1.65-2.67,3.13c-0.48,1.04-0.72,3.78-0.72,8.22v25.04h31.23v-25.04
			c0-4.52-0.24-7.35-0.72-8.48c-0.48-1.13-1.46-2.12-2.93-2.97c-1.48-0.85-3.46-1.27-5.93-1.27h-2.87v-2.41H972v2.41h-2.87
			c-2.61,0-4.67,0.46-6.19,1.37c-1.13,0.61-2.02,1.65-2.67,3.13c-0.48,1.04-0.72,3.78-0.72,8.22v58.16c0,4.52,0.24,7.35,0.72,8.47
			c0.48,1.13,1.46,2.12,2.93,2.97c1.48,0.85,3.46,1.27,5.93,1.27H972v2.41h-46.16v-2.41h2.87c2.61,0,4.67-0.46,6.2-1.37
			c1.13-0.61,2.02-1.65,2.67-3.13c0.48-1.04,0.72-3.78,0.72-8.21v-27.38H907.06z"/>
	</g>
</g>
</svg>
