<?xml version="1.0" encoding="utf-8"?>
<!-- Generator: Adobe Illustrator 19.0.0, SVG Export Plug-In . SVG Version: 6.00 Build 0)  -->
<svg version="1.1" id="Layer_2" xmlns="http://www.w3.org/2000/svg" xmlns:xlink="http://www.w3.org/1999/xlink" x="0px" y="0px"
	 viewBox="198 186.8 1008 421.2" style="enable-background:new 198 186.8 1008 421.2;" xml:space="preserve">
<style type="text/css">
	.st0{fill:#FFFFFF;}
	.st1{fill:#E10E0E;}
	.st2{fill:#88BCD9;}
</style>
<g>
	<path class="st0" d="M399.9,348.1h49.3c0,0,15.5,0.3,15.8,20.9l-7.2,62.3l-56.9,14.6l13.7-72.4c0,0,4.3-13.4-15.5-13.4L399.9,348.1
		z"/>
	<polygon class="st0" points="446.8,501.4 438.8,550.4 453.1,559.8 453.1,570.9 364.8,570.9 364.8,562.2 385.5,550.8 392.3,505.2 	
		"/>
	<path class="st1" d="M477.2,269.6c-11.2,13.1-29.4,16-40.5,6.4c-11.1-9.6-11.1-27.9,0.2-41c11.2-13.1,29.4-16,40.5-6.4
		C488.5,238.2,488.4,256.5,477.2,269.6z"/>
	<path class="st2" d="M444.1,322.1c0,0,25.2-7.7,60.4-7.7S612,332.3,612,366c0,11.7-10.2,29.9-33,46.9
		c-42.9,32-124.5,63.3-226.1,63.3c-88.5,0-92.1-40.3-92.1-40.3s18.3,28.6,87.7,28.6c69.3,0,210.6-38,210.6-97
		C559.1,339.7,520.8,315,444.1,322.1z"/>
	<path class="st2" d="M578.3,311.6c0,0,68.2,12.1,68.2,51.4c0,12.5-6.5,31.1-25.3,49.6C581,452.3,493.1,495.4,352,495.4
		c-123.5,0-119.9-46.5-117.2-68.9c0,0-0.9,60.4,115.1,60.4S635,431,635,361.8C635,348.7,621.5,329.6,578.3,311.6z"/>
	<g>
		<path class="st0" d="M680.3,408.2l-12.9,45.7c-0.9,3.1-1.3,4.9-1.3,5.5c0,0.7,0.2,1.3,0.6,1.7c0.4,0.4,0.9,0.6,1.5,0.6
			c0.7,0,1.4-0.4,2.4-1c2.5-2,5-4.7,7.5-8.4l2.3,1.5c-3,4.5-6.4,8.3-10.4,11.4c-3,2.3-5.8,3.5-8.5,3.5c-1.8,0-3.2-0.5-4.4-1.6
			c-1.1-1.1-1.7-2.4-1.7-4c0-1.6,0.5-4.3,1.6-8l8.5-29.2c1.4-4.8,2.1-7.8,2.1-9c0-1-0.3-1.7-1-2.4s-1.6-0.9-2.8-0.9
			c-1,0-2.9,0.2-5.9,0.7v-2.5L680.3,408.2z M679.5,382.3c1.8,0,3.4,0.6,4.6,1.9s1.9,2.8,1.9,4.6c0,1.8-0.6,3.3-1.9,4.6
			c-1.3,1.3-2.8,1.9-4.6,1.9c-1.8,0-3.3-0.6-4.6-1.9c-1.3-1.3-1.9-2.8-1.9-4.6c0-1.8,0.6-3.4,1.9-4.6
			C676.1,382.9,677.7,382.3,679.5,382.3z"/>
		<path class="st0" d="M764.3,374.5l-22.4,76.9c-1.2,4.2-1.8,6.9-1.8,8.2c0,0.4,0.2,0.9,0.6,1.2c0.4,0.4,0.8,0.6,1.1,0.6
			c0.6,0,1.2-0.3,2-0.9c1.5-1,4-3.6,7.4-7.8l2.2,1.4c-3.1,4.4-6.3,7.9-9.5,10.6c-3.2,2.7-6.2,4-9,4c-1.5,0-2.7-0.5-3.7-1.6
			c-1-1-1.4-2.5-1.4-4.4c0-2.5,0.7-5.8,2-10l2.5-8.1c-6.3,9.7-12,16.5-17.2,20.2c-3.6,2.6-7,3.9-10.2,3.9c-3.3,0-6.2-1.5-8.6-4.4
			c-2.5-2.9-3.7-6.9-3.7-12c0-6.5,2.1-13.4,6.2-20.7c4.1-7.3,9.6-13.3,16.4-17.9c5.3-3.7,10.3-5.5,14.7-5.5c2.3,0,4.4,0.5,6.1,1.4
			c1.7,1,3.4,2.5,5,4.8l6.4-22.7c0.5-1.6,0.9-2.9,1.2-3.9c0.5-1.7,0.8-3.2,0.8-4.3c0-0.9-0.3-1.7-1-2.3c-0.9-0.7-2.1-1.1-3.5-1.1
			c-1,0-2.7,0.1-5,0.5v-2.4L764.3,374.5z M740.1,420.8c0-2.8-0.8-5-2.4-6.7c-1.6-1.7-3.7-2.5-6.1-2.5c-5.5,0-11.2,4.5-17.1,13.6
			c-5.9,9-8.9,17.7-8.9,25.9c0,3.3,0.7,5.8,2.1,7.5s3.2,2.6,5.2,2.6c4.5,0,10.2-4.9,17-14.7C736.7,436.6,740.1,428.1,740.1,420.8z"
			/>
		<path class="st0" d="M780.1,442.6c-0.3,2.2-0.5,4-0.5,5.4c0,3.9,1.4,7.2,4.1,9.9s6.1,4.1,10,4.1c3.1,0,6.1-0.6,9-1.9
			s7.2-4.1,12.9-8.5l1.4,1.9c-10.3,10.2-20.1,15.3-29.5,15.3c-6.3,0-11.1-2-14.3-6c-3.2-4-4.8-8.4-4.8-13.2c0-6.5,2-13.1,6-19.9
			c4-6.8,9-12.1,15.1-15.8s12.3-5.6,18.7-5.6c4.6,0,8,0.9,10.2,2.8c2.2,1.9,3.3,4.1,3.3,6.6c0,3.6-1.4,7.1-4.3,10.4
			c-3.8,4.3-9.3,7.8-16.7,10.4C795.8,440.2,788.9,441.6,780.1,442.6z M780.5,439.4c6.4-0.7,11.7-2,15.7-3.8c5.3-2.4,9.4-5.3,12-8.6
			c2.7-3.3,4-6.5,4-9.5c0-1.8-0.6-3.3-1.7-4.4c-1.2-1.1-2.8-1.7-4.9-1.7c-4.4,0-9.1,2.4-14.1,7.1
			C786.6,423.2,782.9,430.2,780.5,439.4z"/>
		<path class="st0" d="M891.5,408.2l-12.7,44.2l-1.4,5.9c-0.1,0.6-0.2,1-0.2,1.4c0,0.7,0.2,1.3,0.7,1.8c0.3,0.4,0.8,0.6,1.3,0.6
			c0.6,0,1.3-0.4,2.2-1c1.7-1.3,4-3.9,6.8-7.8l2.2,1.6c-3,4.5-6.1,8-9.3,10.3c-3.2,2.4-6.1,3.5-8.8,3.5c-1.9,0-3.3-0.5-4.2-1.4
			s-1.4-2.3-1.4-4.1c0-2.1,0.5-4.9,1.4-8.4l1.4-4.9c-5.7,7.4-10.9,12.6-15.7,15.6c-3.4,2.1-6.8,3.2-10.1,3.2c-3.2,0-5.9-1.3-8.2-3.9
			c-2.3-2.6-3.5-6.3-3.5-10.9c0-6.9,2.1-14.2,6.2-21.9c4.2-7.7,9.4-13.8,15.8-18.4c5-3.7,9.7-5.5,14.2-5.5c2.7,0,4.9,0.7,6.6,2.1
			s3.1,3.7,4,6.9l2.3-7.4L891.5,408.2z M868.2,411.6c-2.8,0-5.7,1.3-8.9,3.9c-4.4,3.7-8.4,9.2-11.8,16.4c-3.5,7.3-5.2,13.8-5.2,19.7
			c0,3,0.7,5.3,2.2,7s3.2,2.6,5.1,2.6c4.7,0,9.9-3.5,15.5-10.5c7.4-9.3,11.2-18.8,11.2-28.6c0-3.7-0.7-6.4-2.2-8
			C872.7,412.4,870.7,411.6,868.2,411.6z"/>
		<path class="st0" d="M940.6,374.5l-22.3,77.6c-1.1,3.9-1.6,6.2-1.6,7.1c0,0.6,0.2,1.2,0.6,1.6c0.4,0.4,0.9,0.6,1.5,0.6
			c0.8,0,1.7-0.4,2.7-1.1c2.3-1.8,4.6-4.5,7.1-8.3l2,2c-4.1,5.8-7.9,9.9-11.4,12.2c-2.6,1.6-5,2.5-7.3,2.5c-1.7,0-3-0.6-4.1-1.7
			s-1.7-2.4-1.7-3.9c0-1.6,0.7-4.8,2.1-9.6l17.7-61.1c1.4-5,2.2-7.9,2.2-8.6c0-1-0.4-1.9-1.2-2.6c-0.8-0.7-2.1-1-3.8-1
			c-1,0-2.5,0.1-4.6,0.5v-2.4L940.6,374.5z"/>
	</g>
	<g>
		<path class="st0" d="M685.7,529.7v24.5c0,4.8,0.3,7.8,0.9,9s1.6,2.2,3.1,3s4.3,1.1,8.3,1.1v2.4H653v-2.4c4.1,0,6.9-0.4,8.3-1.1
			c1.5-0.8,2.5-1.8,3.1-3c0.6-1.2,0.9-4.2,0.9-9v-57.4c0-4.8-0.3-7.8-0.9-9s-1.6-2.2-3.1-3c-1.5-0.7-4.2-1.1-8.3-1.1v-2.4h38.5
			c12.7,0,21.8,2.3,27.3,6.8c5.5,4.5,8.3,10.2,8.3,17c0,5.7-1.8,10.6-5.3,14.7c-3.6,4.1-8.5,6.9-14.7,8.3
			C702.9,529.2,695.7,529.7,685.7,529.7z M685.7,486.4v38.2c1.4,0.1,2.5,0.1,3.3,0.1c5.3,0,9.4-1.6,12.3-4.7c2.9-3.1,4.3-8,4.3-14.6
			c0-6.6-1.4-11.4-4.3-14.4s-7.1-4.6-12.8-4.6L685.7,486.4L685.7,486.4z"/>
		<path class="st0" d="M746.3,481.3H792v2.4h-2.3c-3.4,0-5.8,0.4-7.1,1.1s-2.2,1.7-2.7,3s-0.8,4.4-0.8,9.5v43.3
			c0,7.9,0.6,13.2,1.8,15.7s3.2,4.7,5.9,6.4c2.7,1.7,6.2,2.5,10.4,2.5c4.8,0,8.9-1.1,12.2-3.2c3.4-2.2,5.9-5.1,7.6-8.9
			c1.7-3.8,2.5-10.4,2.5-19.8v-36c0-4-0.4-6.8-1.2-8.5c-0.8-1.7-1.9-2.9-3.1-3.5c-2-1-4.7-1.5-8.3-1.5v-2.4h30.6v2.4h-1.8
			c-2.5,0-4.5,0.5-6.2,1.5s-2.8,2.5-3.6,4.5c-0.6,1.4-0.8,3.9-0.8,7.5v33.6c0,10.4-0.7,17.9-2,22.5c-1.4,4.6-4.7,8.8-10,12.7
			c-5.3,3.9-12.5,5.8-21.7,5.8c-7.7,0-13.6-1-17.7-3.1c-5.7-2.8-9.7-6.3-12.1-10.7c-2.3-4.4-3.5-10.2-3.5-17.5v-43.3
			c0-5.1-0.3-8.3-0.8-9.5c-0.6-1.2-1.5-2.2-2.9-3s-4-1.1-7.7-1L746.3,481.3L746.3,481.3z"/>
		<path class="st0" d="M884.9,481.3l43.6,54.8v-38c0-5.3-0.8-8.9-2.3-10.8c-2.1-2.5-5.6-3.7-10.5-3.6v-2.4H945v2.4
			c-3.7,0.5-6.3,1.1-7.5,1.9c-1.3,0.8-2.3,2-3,3.7s-1.1,4.7-1.1,8.8v73.6h-2.2l-59.8-73.6v56.2c0,5.1,1.2,8.5,3.5,10.3
			c2.3,1.8,5,2.7,8,2.7h2.1v2.4h-31.4v-2.4c4.9,0,8.3-1,10.2-3c1.9-2,2.9-5.3,2.9-10V492l-1.9-2.4c-1.9-2.4-3.5-3.9-5-4.6
			s-3.5-1.1-6.2-1.2v-2.4L884.9,481.3L884.9,481.3z"/>
		<path class="st0" d="M1049.2,479.3V510h-2.5c-1.9-8-5.5-14.1-10.7-18.4c-5.2-4.3-11.1-6.4-17.7-6.4c-5.5,0-10.6,1.6-15.2,4.8
			s-8,7.3-10.1,12.5c-2.7,6.6-4.1,13.9-4.1,21.9c0,7.9,1,15.1,3,21.6c2,6.5,5.1,11.4,9.4,14.7c4.3,3.3,9.8,5,16.6,5
			c5.6,0,10.7-1.2,15.3-3.6c4.6-2.4,9.5-6.6,14.6-12.6v7.6c-5,5.2-10.1,8.9-15.5,11.3c-5.4,2.3-11.6,3.5-18.8,3.5
			c-9.4,0-17.8-1.9-25.1-5.7c-7.3-3.8-13-9.2-17-16.3c-4-7.1-6-14.6-6-22.6c0-8.4,2.2-16.4,6.6-24s10.4-13.4,17.9-17.6
			c7.5-4.2,15.5-6.3,23.9-6.3c6.2,0,12.8,1.4,19.7,4c4,1.6,6.5,2.4,7.6,2.4c1.4,0,2.6-0.5,3.6-1.5s1.7-2.6,2-4.9L1049.2,479.3
			L1049.2,479.3z"/>
		<path class="st0" d="M1105.1,527.3v27.4c0,4.5,0.3,7.3,0.8,8.5c0.5,1.1,1.5,2.1,2.9,3c1.5,0.9,3.4,1.3,5.9,1.3h2.9v2.4h-46.2v-2.4
			h2.9c2.6,0,4.6-0.5,6.2-1.4c1.1-0.6,2-1.6,2.6-3.1c0.5-1,0.7-3.8,0.7-8.2v-58.2c0-4.5-0.2-7.4-0.7-8.5s-1.5-2.1-2.9-3
			c-1.5-0.9-3.4-1.3-5.9-1.3h-2.9v-2.4h46.2v2.4h-2.9c-2.6,0-4.6,0.5-6.2,1.4c-1.1,0.6-2,1.6-2.7,3.1c-0.5,1-0.7,3.8-0.7,8.2v25
			h31.2v-25c0-4.5-0.2-7.4-0.7-8.5s-1.5-2.1-2.9-3c-1.5-0.9-3.5-1.3-5.9-1.3h-2.9v-2.4h46.1v2.4h-2.9c-2.6,0-4.7,0.5-6.2,1.4
			c-1.1,0.6-2,1.6-2.7,3.1c-0.5,1-0.7,3.8-0.7,8.2v58.2c0,4.5,0.2,7.3,0.7,8.5c0.5,1.1,1.5,2.1,2.9,3c1.5,0.9,3.5,1.3,5.9,1.3h2.9
			v2.4h-46.2v-2.4h2.9c2.6,0,4.7-0.5,6.2-1.4c1.1-0.6,2-1.6,2.7-3.1c0.5-1,0.7-3.8,0.7-8.2v-27.4H1105.1z"/>
	</g>
</g>
</svg>
