<?xml version="1.0" encoding="utf-8"?>
<!-- Generator: Adobe Illustrator 22.0.1, SVG Export Plug-In . SVG Version: 6.00 Build 0)  -->
<svg version="1.1" id="Layer_1" xmlns="http://www.w3.org/2000/svg" xmlns:xlink="http://www.w3.org/1999/xlink" x="0px" y="0px"
	 viewBox="0 0 71 48" style="enable-background:new 0 0 71 48;" xml:space="preserve">
<style type="text/css">
	.st0{fill:#ED5565;}
	.st1{fill:#E4EAF2;}
	.st2{fill:#4A89DC;}
	.st3{fill:#FFFFFF;}
</style>
<title>USA@2x</title>
<desc>Created with Sketch.</desc>
<g id="Flags" transform="translate(-831.000000, -866.000000)">
	<g id="USA" transform="translate(70.000000, 70.000000)">
		<g transform="translate(761.000000, 796.000000)">
			<path id="Shape" class="st0" d="M7,47.6h57.8c2.3-0.2,4.3-1.6,5.4-3.6H1.6C2.6,46.1,4.7,47.4,7,47.6z"/>
			<path id="Shape_1_" class="st1" d="M0.9,40.4v1.3C1,42.5,1.2,43.3,1.6,44h68.6c0.4-0.7,0.6-1.5,0.7-2.3v-1.3H0.9z"/>
			<rect id="Rectangle-path" x="0.9" y="36.8" class="st0" width="69.9" height="3.6"/>
			<rect id="Rectangle-path_1_" x="0.9" y="33.2" class="st1" width="69.9" height="3.6"/>
			<rect id="Rectangle-path_2_" x="0.9" y="29.5" class="st0" width="69.9" height="3.6"/>
			<rect id="Rectangle-path_3_" x="0.9" y="25.9" class="st1" width="69.9" height="3.6"/>
			<rect id="Rectangle-path_4_" x="0.9" y="22.3" class="st0" width="69.9" height="3.6"/>
			<rect id="Rectangle-path_5_" x="0.9" y="18.7" class="st1" width="69.9" height="3.6"/>
			<rect id="Rectangle-path_6_" x="0.9" y="15.1" class="st0" width="69.9" height="3.6"/>
			<rect id="Rectangle-path_7_" x="0.9" y="11.5" class="st1" width="69.9" height="3.6"/>
			<rect id="Rectangle-path_8_" x="0.9" y="7.9" class="st0" width="69.9" height="3.6"/>
			<path id="Shape_2_" class="st1" d="M70.8,7.9V6.5c-0.1-0.8-0.3-1.6-0.7-2.3H1.6C1.2,5,1,5.7,0.9,6.5v1.3H70.8z"/>
			<path id="Shape_3_" class="st0" d="M64.8,0.7H7C4.7,0.8,2.7,2.2,1.6,4.3h68.6C69.1,2.2,67.1,0.8,64.8,0.7z"/>
			<path id="Shape_4_" class="st2" d="M34.1,25.9V0.7H7C3.8,0.9,1.3,3.4,0.9,6.6v19.4H34.1z"/>
			<polygon id="Shape_5_" class="st3" points="5,3.7 4.8,4.6 3.9,4.6 4.6,5.1 4.3,5.9 5,5.4 5.7,5.9 5.5,5.1 6.2,4.6 5.3,4.6 			"/>
			<polygon id="Shape_6_" class="st3" points="5,8 4.8,8.8 3.9,8.8 4.6,9.3 4.3,10.1 5,9.6 5.7,10.1 5.5,9.3 6.2,8.8 5.3,8.8 			"/>
			<polygon id="Shape_7_" class="st3" points="5,12.2 4.8,13 3.9,13 4.6,13.6 4.3,14.4 5,13.9 5.7,14.4 5.5,13.6 6.2,13 5.3,13 			
				"/>
			<polygon id="Shape_8_" class="st3" points="5,16.5 4.8,17.3 3.9,17.3 4.6,17.8 4.3,18.6 5,18.1 5.7,18.6 5.5,17.8 6.2,17.3 
				5.3,17.3 			"/>
			<polygon id="Shape_9_" class="st3" points="5.3,21.5 5,20.7 4.8,21.5 3.9,21.5 4.6,22 4.3,22.9 5,22.4 5.7,22.9 5.5,22 6.2,21.5 
							"/>
			<polygon id="Shape_10_" class="st3" points="7.5,5.8 7.2,6.7 6.4,6.7 7.1,7.2 6.8,8 7.5,7.5 8.2,8 8,7.2 8.7,6.7 7.8,6.7 			"/>
			<polygon id="Shape_11_" class="st3" points="7.5,10.1 7.2,10.9 6.4,10.9 7.1,11.4 6.8,12.3 7.5,11.8 8.2,12.3 8,11.4 8.7,10.9 
				7.8,10.9 			"/>
			<polygon id="Shape_12_" class="st3" points="7.5,14.3 7.2,15.2 6.4,15.2 7.1,15.7 6.8,16.5 7.5,16 8.2,16.5 8,15.7 8.7,15.2 
				7.8,15.2 			"/>
			<polygon id="Shape_13_" class="st3" points="7.8,19.4 7.5,18.6 7.2,19.4 6.4,19.4 7.1,19.9 6.8,20.8 7.5,20.2 8.2,20.8 8,19.9 
				8.7,19.4 			"/>
			<polygon id="Shape_14_" class="st3" points="10,3.7 9.7,4.6 8.9,4.6 9.6,5.1 9.3,5.9 10,5.4 10.7,5.9 10.4,5.1 11.2,4.6 
				10.3,4.6 			"/>
			<polygon id="Shape_15_" class="st3" points="10,8 9.7,8.8 8.9,8.8 9.6,9.3 9.3,10.1 10,9.6 10.7,10.1 10.4,9.3 11.2,8.8 
				10.3,8.8 			"/>
			<polygon id="Shape_16_" class="st3" points="10,12.2 9.7,13 8.9,13 9.6,13.6 9.3,14.4 10,13.9 10.7,14.4 10.4,13.6 11.2,13 
				10.3,13 			"/>
			<polygon id="Shape_17_" class="st3" points="10,16.5 9.7,17.3 8.9,17.3 9.6,17.8 9.3,18.6 10,18.1 10.7,18.6 10.4,17.8 
				11.2,17.3 10.3,17.3 			"/>
			<polygon id="Shape_18_" class="st3" points="10.3,21.5 10,20.7 9.7,21.5 8.9,21.5 9.6,22 9.3,22.9 10,22.4 10.7,22.9 10.4,22 
				11.2,21.5 			"/>
			<polygon id="Shape_19_" class="st3" points="12.5,5.8 12.2,6.7 11.4,6.7 12.1,7.2 11.8,8 12.5,7.5 13.2,8 12.9,7.2 13.7,6.7 
				12.8,6.7 			"/>
			<polygon id="Shape_20_" class="st3" points="12.5,10.1 12.2,10.9 11.4,10.9 12.1,11.4 11.8,12.3 12.5,11.8 13.2,12.3 12.9,11.4 
				13.7,10.9 12.8,10.9 			"/>
			<polygon id="Shape_21_" class="st3" points="12.5,14.3 12.2,15.2 11.4,15.2 12.1,15.7 11.8,16.5 12.5,16 13.2,16.5 12.9,15.7 
				13.7,15.2 12.8,15.2 			"/>
			<polygon id="Shape_22_" class="st3" points="12.8,19.4 12.5,18.6 12.2,19.4 11.4,19.4 12.1,19.9 11.8,20.8 12.5,20.2 13.2,20.8 
				12.9,19.9 13.7,19.4 			"/>
			<polygon id="Shape_23_" class="st3" points="15,3.7 14.7,4.6 13.9,4.6 14.6,5.1 14.3,5.9 15,5.4 15.7,5.9 15.4,5.1 16.1,4.6 
				15.3,4.6 			"/>
			<polygon id="Shape_24_" class="st3" points="15,8 14.7,8.8 13.9,8.8 14.6,9.3 14.3,10.1 15,9.6 15.7,10.1 15.4,9.3 16.1,8.8 
				15.3,8.8 			"/>
			<polygon id="Shape_25_" class="st3" points="15,12.2 14.7,13 13.9,13 14.6,13.6 14.3,14.4 15,13.9 15.7,14.4 15.4,13.6 16.1,13 
				15.3,13 			"/>
			<polygon id="Shape_26_" class="st3" points="15,16.5 14.7,17.3 13.9,17.3 14.6,17.8 14.3,18.6 15,18.1 15.7,18.6 15.4,17.8 
				16.1,17.3 15.3,17.3 			"/>
			<polygon id="Shape_27_" class="st3" points="15.3,21.5 15,20.7 14.7,21.5 13.9,21.5 14.6,22 14.3,22.9 15,22.4 15.7,22.9 
				15.4,22 16.1,21.5 			"/>
			<polygon id="Shape_28_" class="st3" points="17.5,5.8 17.2,6.7 16.3,6.7 17,7.2 16.8,8 17.5,7.5 18.2,8 17.9,7.2 18.6,6.7 
				17.8,6.7 			"/>
			<polygon id="Shape_29_" class="st3" points="17.5,10.1 17.2,10.9 16.3,10.9 17,11.4 16.8,12.3 17.5,11.8 18.2,12.3 17.9,11.4 
				18.6,10.9 17.8,10.9 			"/>
			<polygon id="Shape_30_" class="st3" points="17.5,14.3 17.2,15.2 16.3,15.2 17,15.7 16.8,16.5 17.5,16 18.2,16.5 17.9,15.7 
				18.6,15.2 17.8,15.2 			"/>
			<polygon id="Shape_31_" class="st3" points="17.8,19.4 17.5,18.6 17.2,19.4 16.3,19.4 17,19.9 16.8,20.8 17.5,20.2 18.2,20.8 
				17.9,19.9 18.6,19.4 			"/>
			<polygon id="Shape_32_" class="st3" points="20,3.7 19.7,4.6 18.8,4.6 19.5,5.1 19.3,5.9 20,5.4 20.7,5.9 20.4,5.1 21.1,4.6 
				20.3,4.6 			"/>
			<polygon id="Shape_33_" class="st3" points="20,8 19.7,8.8 18.8,8.8 19.5,9.3 19.3,10.1 20,9.6 20.7,10.1 20.4,9.3 21.1,8.8 
				20.3,8.8 			"/>
			<polygon id="Shape_34_" class="st3" points="20,12.2 19.7,13 18.8,13 19.5,13.6 19.3,14.4 20,13.9 20.7,14.4 20.4,13.6 21.1,13 
				20.3,13 			"/>
			<polygon id="Shape_35_" class="st3" points="20,16.5 19.7,17.3 18.8,17.3 19.5,17.8 19.3,18.6 20,18.1 20.7,18.6 20.4,17.8 
				21.1,17.3 20.3,17.3 			"/>
			<polygon id="Shape_36_" class="st3" points="20.3,21.5 20,20.7 19.7,21.5 18.8,21.5 19.5,22 19.3,22.9 20,22.4 20.7,22.9 
				20.4,22 21.1,21.5 			"/>
			<polygon id="Shape_37_" class="st3" points="22.5,5.8 22.2,6.7 21.3,6.7 22,7.2 21.8,8 22.5,7.5 23.2,8 22.9,7.2 23.6,6.7 
				22.8,6.7 			"/>
			<polygon id="Shape_38_" class="st3" points="22.5,10.1 22.2,10.9 21.3,10.9 22,11.4 21.8,12.3 22.5,11.8 23.2,12.3 22.9,11.4 
				23.6,10.9 22.8,10.9 			"/>
			<polygon id="Shape_39_" class="st3" points="22.5,14.3 22.2,15.2 21.3,15.2 22,15.7 21.8,16.5 22.5,16 23.2,16.5 22.9,15.7 
				23.6,15.2 22.8,15.2 			"/>
			<polygon id="Shape_40_" class="st3" points="22.8,19.4 22.5,18.6 22.2,19.4 21.3,19.4 22,19.9 21.8,20.8 22.5,20.2 23.2,20.8 
				22.9,19.9 23.6,19.4 			"/>
			<polygon id="Shape_41_" class="st3" points="25,3.7 24.7,4.6 23.8,4.6 24.5,5.1 24.3,5.9 25,5.4 25.7,5.9 25.4,5.1 26.1,4.6 
				25.2,4.6 			"/>
			<polygon id="Shape_42_" class="st3" points="25,8 24.7,8.8 23.8,8.8 24.5,9.3 24.3,10.1 25,9.6 25.7,10.1 25.4,9.3 26.1,8.8 
				25.2,8.8 			"/>
			<polygon id="Shape_43_" class="st3" points="25,12.2 24.7,13 23.8,13 24.5,13.6 24.3,14.4 25,13.9 25.7,14.4 25.4,13.6 26.1,13 
				25.2,13 			"/>
			<polygon id="Shape_44_" class="st3" points="25,16.5 24.7,17.3 23.8,17.3 24.5,17.8 24.3,18.6 25,18.1 25.7,18.6 25.4,17.8 
				26.1,17.3 25.2,17.3 			"/>
			<polygon id="Shape_45_" class="st3" points="25.2,21.5 25,20.7 24.7,21.5 23.8,21.5 24.5,22 24.3,22.9 25,22.4 25.7,22.9 
				25.4,22 26.1,21.5 			"/>
			<polygon id="Shape_46_" class="st3" points="27.5,5.8 27.2,6.7 26.3,6.7 27,7.2 26.8,8 27.5,7.5 28.2,8 27.9,7.2 28.6,6.7 
				27.8,6.7 			"/>
			<polygon id="Shape_47_" class="st3" points="27.5,10.1 27.2,10.9 26.3,10.9 27,11.4 26.8,12.3 27.5,11.8 28.2,12.3 27.9,11.4 
				28.6,10.9 27.8,10.9 			"/>
			<polygon id="Shape_48_" class="st3" points="27.5,14.3 27.2,15.2 26.3,15.2 27,15.7 26.8,16.5 27.5,16 28.2,16.5 27.9,15.7 
				28.6,15.2 27.8,15.2 			"/>
			<polygon id="Shape_49_" class="st3" points="27.8,19.4 27.5,18.6 27.2,19.4 26.3,19.4 27,19.9 26.8,20.8 27.5,20.2 28.2,20.8 
				27.9,19.9 28.6,19.4 			"/>
			<polygon id="Shape_50_" class="st3" points="29.5,5.1 29.3,5.9 30,5.4 30.7,5.9 30.4,5.1 31.1,4.6 30.2,4.6 30,3.7 29.7,4.6 
				28.8,4.6 			"/>
			<polygon id="Shape_51_" class="st3" points="30,8 29.7,8.8 28.8,8.8 29.5,9.3 29.3,10.1 30,9.6 30.7,10.1 30.4,9.3 31.1,8.8 
				30.2,8.8 			"/>
			<polygon id="Shape_52_" class="st3" points="30,12.2 29.7,13 28.8,13 29.5,13.6 29.3,14.4 30,13.9 30.7,14.4 30.4,13.6 31.1,13 
				30.2,13 			"/>
			<polygon id="Shape_53_" class="st3" points="30,16.5 29.7,17.3 28.8,17.3 29.5,17.8 29.3,18.6 30,18.1 30.7,18.6 30.4,17.8 
				31.1,17.3 30.2,17.3 			"/>
			<polygon id="Shape_54_" class="st3" points="30.2,21.5 30,20.7 29.7,21.5 28.8,21.5 29.5,22 29.3,22.9 30,22.4 30.7,22.9 
				30.4,22 31.1,21.5 			"/>
		</g>
	</g>
</g>
</svg>
